#!OML:ASF G:\JayActor3\Patient Classification 1\Patient 1\Session 6\male.ASF
:FULLY-SPECIFIED
:DEGREES
1092
root 0.392729 16.2121 -18.671 361.271 -27.9398 -367.787
lowerback 6.74473 -2.03725 6.39109
upperback -0.371055 -2.08572 3.20545
thorax -4.28584 -1.14877 -0.0324228
lowerneck 8.73974 -16.4899 -6.86289
upperneck -5.53392 -22.175 12.6286
head -0.832711 -11.4257 5.10308
rclavicle 3.93881e-014 3.57812e-015
rhumerus -29.2264 15.7919 -84.3322
rradius 29.1132
rwrist 8.1981
rhand -5.26471 -1.27318
rfingers 7.12502
rthumb 20.5391 -30.2067
lclavicle 3.93881e-014 3.57812e-015
lhumerus -56.3642 12.0601 73.2447
lradius 27.2909
lwrist 22.813
lhand -7.95502 10.302
lfingers 7.12502
lthumb 17.9521 39.4934
rfemur 18.5012 1.37375 29.8533
rtibia 9.75111
rfoot -20.465 -16.5493
rtoes -6.27343
lfemur -26.8428 13.1279 -13.8824
ltibia 25.6016
lfoot -15.9257 10.6288
ltoes -8.96111
1093
root 0.36037 16.1944 -18.5913 361.497 -28.1189 -367.998
lowerback 6.62997 -2.02127 6.37626
upperback -0.409298 -2.07515 3.16939
thorax -4.26133 -1.14369 -0.0661016
lowerneck 8.77317 -16.4406 -6.7902
upperneck -5.45443 -22.1103 12.5787
head -0.834224 -11.3932 5.08302
rclavicle -1.10263e-016 4.77083e-015
rhumerus -29.4917 15.4124 -84.4414
rradius 29.0825
rwrist 8.38038
rhand -5.27446 -1.23824
rfingers 7.12502
rthumb 20.5297 -30.1728
lclavicle -1.10263e-016 4.77083e-015
lhumerus -56.2902 12.0183 73.0037
lradius 27.2647
lwrist 22.8124
lhand -7.96675 10.2888
lfingers 7.12502
lthumb 17.9408 39.4813
rfemur 18.6258 1.46249 29.956
rtibia 9.88704
rfoot -20.4815 -16.3518
rtoes -6.58029
lfemur -26.5687 12.9151 -13.6053
ltibia 25.6634
lfoot -16.0589 10.3796
ltoes -9.06141
1094
root 0.327769 16.178 -18.5102 361.72 -28.2971 -368.205
lowerback 6.51013 -2.00618 6.35526
upperback -0.447163 -2.06685 3.12828
thorax -4.23358 -1.13956 -0.10152
lowerneck 8.82323 -16.3891 -6.74344
upperneck -5.39841 -22.0439 12.5609
head -0.838889 -11.3615 5.07724
rclavicle -2.08522e-014 4.21423e-014
rhumerus -29.7619 15.0025 -84.5336
rradius 29.0547
rwrist 8.55715
rhand -5.35258 -1.20901
rfingers 7.12502
rthumb 20.4546 -30.1516
lclavicle -2.08522e-014 4.21423e-014
lhumerus -56.1993 11.9691 72.7621
lradius 27.2482
lwrist 22.8178
lhand -7.98777 10.27
lfingers 7.12502
lthumb 17.9206 39.4643
rfemur 18.7979 1.55189 30.0508
rtibia 9.9533
rfoot -20.4563 -16.1369
rtoes -6.93172
lfemur -26.3178 12.833 -13.3688
ltibia 25.7821
lfoot -16.0488 10.0986
ltoes -9.35972
1095
root 0.295559 16.1646 -18.4273 361.943 -28.4799 -368.401
lowerback 6.38474 -1.9925 6.32841
upperback -0.484594 -2.06139 3.08464
thorax -4.20224 -1.13665 -0.136195
lowerneck 8.8939 -16.3338 -6.73026
upperneck -5.37895 -21.9734 12.5812
head -0.850002 -11.3295 5.08944
rclavicle 1.13975e-014 1.39149e-015
rhumerus -30.0237 14.5658 -84.5975
rradius 29.0224
rwrist 8.7236
rhand -5.47928 -1.17029
rfingers 7.12502
rthumb 20.3329 -30.1259
lclavicle 1.13975e-014 1.39149e-015
lhumerus -56.0825 11.9009 72.5467
lradius 27.2411
lwrist 22.8614
lhand -8.04089 10.2628
lfingers 7.12502
lthumb 17.8695 39.4619
rfemur 19.0328 1.64916 30.1303
rtibia 9.90349
rfoot -20.3524 -15.91
rtoes -7.33367
lfemur -26.114 12.846 -13.1646
ltibia 25.9395
lfoot -15.8832 9.83461
ltoes -9.73702
1096
root 0.263927 16.1555 -18.3424 362.154 -28.6712 -368.562
lowerback 6.25056 -1.97842 6.27583
upperback -0.519989 -2.05844 3.03247
thorax -4.16323 -1.13429 -0.165559
lowerneck 8.97488 -16.2765 -6.73756
upperneck -5.3907 -21.9 12.624
head -0.867536 -11.2973 5.11277
rclavicle -3.22482e-014 -1.17283e-014
rhumerus -30.2697 14.0982 -84.6292
rradius 28.9856
rwrist 8.86574
rhand -5.60634 -1.14283
rfingers 7.12502
rthumb 20.2107 -30.1114
lclavicle -3.22482e-014 -1.17283e-014
lhumerus -55.9338 11.8317 72.3452
lradius 27.2309
lwrist 22.9167
lhand -8.11134 10.2428
lfingers 7.12502
lthumb 17.8017 39.448
rfemur 19.3381 1.75858 30.1683
rtibia 9.7195
rfoot -20.1509 -15.6722
rtoes -7.78383
lfemur -25.964 12.8965 -12.9971
ltibia 26.1131
lfoot -15.5541 9.64288
ltoes -10.1618
1097
root 0.232876 16.1515 -18.2551 362.357 -28.8702 -368.688
lowerback 6.10126 -1.96714 6.19435
upperback -0.551332 -2.0628 2.97783
thorax -4.11077 -1.13462 -0.181361
lowerneck 9.05161 -16.2147 -6.75766
upperneck -5.42649 -21.82 12.6665
head -0.890913 -11.2617 5.13867
rclavicle -7.68396e-014 -2.60408e-014
rhumerus -30.4987 13.6316 -84.632
rradius 28.9449
rwrist 8.95063
rhand -5.74693 -1.12501
rfingers 7.12502
rthumb 20.0756 -30.1078
lclavicle -7.68396e-014 -2.60408e-014
lhumerus -55.7512 11.7731 72.1637
lradius 27.2148
lwrist 22.9868
lhand -8.21043 10.2187
lfingers 7.12502
lthumb 17.7063 39.4325
rfemur 19.694 1.87917 30.1665
rtibia 9.42859
rfoot -19.8509 -15.4396
rtoes -8.28196
lfemur -25.8674 12.9512 -12.8523
ltibia 26.2826
lfoot -15.0789 9.5242
ltoes -10.4593
1098
root 0.202245 16.1524 -18.1658 362.541 -29.075 -368.76
lowerback 5.93671 -1.95225 6.07195
upperback -0.581002 -2.06681 2.91012
thorax -4.04682 -1.13372 -0.188661
lowerneck 9.1154 -16.1535 -6.77249
upperneck -5.46362 -21.74 12.6929
head -0.915148 -11.2252 5.15851
rclavicle 2.56564e-014 -7.55382e-015
rhumerus -30.7241 13.132 -84.615
rradius 28.8945
rwrist 8.99739
rhand -5.95907 -1.12933
rfingers 7.12502
rthumb 19.8717 -30.1334
lclavicle 2.56564e-014 -7.55382e-015
lhumerus -55.5321 11.7259 71.9782
lradius 27.184
lwrist 23.0447
lhand -8.3531 10.1734
lfingers 7.12502
lthumb 17.5691 39.3995
rfemur 20.0641 2.00777 30.1099
rtibia 9.0929
rfoot -19.4761 -15.2164
rtoes -8.83427
lfemur -25.8055 12.9779 -12.7349
ltibia 26.4334
lfoot -14.4986 9.46747
ltoes -10.4934
1099
root 0.171821 16.1572 -18.0755 362.702 -29.278 -368.78
lowerback 5.76904 -1.93763 5.89941
upperback -0.60949 -2.07471 2.83453
thorax -3.9784 -1.13366 -0.176031
lowerneck 9.15176 -16.0892 -6.78133
upperneck -5.48123 -21.6561 12.6879
head -0.933954 -11.1847 5.16564
rclavicle 3.78359e-014 1.02374e-014
rhumerus -30.949 12.6 -84.5756
rradius 28.8353
rwrist 9.01761
rhand -6.20312 -1.14766
rfingers 7.12502
rthumb 19.6371 -30.1759
lclavicle 3.78359e-014 1.02374e-014
lhumerus -55.2813 11.7138 71.7716
lradius 27.1385
lwrist 23.0715
lhand -8.55238 10.1098
lfingers 7.12502
lthumb 17.3773 39.353
rfemur 20.4074 2.13378 30.0052
rtibia 8.79296
rfoot -19.0657 -15.0075
rtoes -9.42739
lfemur -25.7556 13.0063 -12.6565
ltibia 26.5655
lfoot -13.8417 9.46927
ltoes -10.3829
1100
root 0.141459 16.1646 -17.9849 362.817 -29.4681 -368.738
lowerback 5.61452 -1.92715 5.66679
upperback -0.631664 -2.09106 2.74857
thorax -3.90925 -1.13651 -0.139649
lowerneck 9.15135 -16.0213 -6.78691
upperneck -5.46812 -21.5687 12.6536
head -0.941934 -11.1398 5.15932
rclavicle -8.8029e-014 2.37548e-014
rhumerus -31.1798 12.0398 -84.518
rradius 28.7672
rwrist 9.05043
rhand -6.51223 -1.1689
rfingers 7.12502
rthumb 19.3399 -30.2272
lclavicle -8.8029e-014 2.37548e-014
lhumerus -54.9973 11.7458 71.5321
lradius 27.078
lwrist 23.0602
lhand -8.79023 10.0391
lfingers 7.12502
lthumb 17.1484 39.3023
rfemur 20.6949 2.24196 29.8452
rtibia 8.61581
rfoot -18.6616 -14.8141
rtoes -10.0598
lfemur -25.6764 13.0692 -12.6387
ltibia 26.6839
lfoot -13.1792 9.48273
ltoes -10.0687
1101
root 0.111527 16.1738 -17.8948 362.893 -29.6338 -368.658
lowerback 5.48621 -1.92212 5.40017
upperback -0.649933 -2.11442 2.65478
thorax -3.85003 -1.14236 -0.0909059
lowerneck 9.12315 -15.9515 -6.78607
upperneck -5.43369 -21.4789 12.6019
head -0.942092 -11.0923 5.1438
rclavicle -7.88593e-014 4.4975e-014
rhumerus -31.4222 11.4395 -84.4403
rradius 28.6954
rwrist 9.10428
rhand -6.84251 -1.18973
rfingers 7.12502
rthumb 19.0223 -30.2795
lclavicle -7.88593e-014 4.4975e-014
lhumerus -54.6809 11.8146 71.251
lradius 27.0061
lwrist 23.0162
lhand -9.00769 9.95907
lfingers 7.12502
lthumb 16.939 39.2404
rfemur 20.8935 2.32098 29.6517
rtibia 8.62192
rfoot -18.2971 -14.6284
rtoes -10.6942
lfemur -25.5632 13.252 -12.6905
ltibia 26.7985
lfoot -12.4972 9.47183
ltoes -9.81822
